<svg xmlns="http://www.w3.org/2000/svg" width="397" height="309" fill="none" viewBox="0 0 397 309"><path fill="#F6FAFC" fillRule="evenodd" d="M346.705 212.816s66.08-69.939 45.6-107.853c-20.481-37.914-82.331-29.515-127.52-43.805-45.189-14.29-50.343-71.953-82.193-59.377-31.85 12.575-31.212 43.481-36.643 76.52-5.431 33.04-126.234 71.452-140.446 112.577-14.212 41.125-2.326 105.629 52.523 107.138 54.849 1.509 29.713-.388 123.974 9.402 94.262 9.791 164.705-94.602 164.705-94.602z" clipRule="evenodd"></path><mask id="mask0_2_1852" width="397" height="309" x="0" y="0" maskUnits="userSpaceOnUse" style="mask-type: alpha;"><path fill="#F6FAFC" fillRule="evenodd" d="M346.705 212.816s66.08-69.939 45.6-107.853c-20.481-37.914-82.331-29.515-127.52-43.805-45.189-14.29-50.343-71.953-82.193-59.377-31.85 12.575-31.212 43.481-36.643 76.52-5.431 33.04-126.234 71.452-140.446 112.577-14.212 41.125-2.326 105.629 52.523 107.138 54.849 1.509 29.713-.388 123.974 9.402 94.262 9.791 164.705-94.602 164.705-94.602z" clipRule="evenodd"></path></mask><g mask="url(#mask0_2_1852)"><path fill="#9BC3D3" d="M226.862 82.545a87.351 87.351 0 008.271 17.868 88.207 88.207 0 01-17.751-30.718 59.606 59.606 0 00-4.06-9.445 57.01 57.01 0 0113.54 22.295z"></path><path fill="#CCC" d="M234.251 107.079s10.358 1.215 14.994 3.975l-13.037 5.726-1.957-9.701z"></path><path fill="#fff" fillRule="evenodd" d="M226.764 123.479l-19.613 3.797a19.611 19.611 0 00-13.55 9.957l-32.404 60.173 18.005 14.447 25.342-46.143 22.22-42.231z" clipRule="evenodd"></path><path fill="#CCC" d="M208.322 114.481l-3.39 5.381 5.313 14.891 10.961-11.724-8.663-8.513-4.221-.035z"></path><path fill="#fff" fillRule="evenodd" d="M200.719 135.678l49.986-.619-14.542 66.568-26.724 14.78-32.512-12.868 15.951-59.799 7.841-8.062z" clipRule="evenodd"></path><path fill="#34466B" d="M240.489 83.683c-3.576 13.333-17.277 21.254-30.623 17.704a24.954 24.954 0 01-15.211-11.581 24.94 24.94 0 01-2.547-18.943c3.573-13.33 17.271-21.252 30.615-17.704a24.956 24.956 0 0115.214 11.58 24.935 24.935 0 012.548 18.944"></path><path fill="#FFC4B8" d="M243.729 114.691s-17.18 22.221-33.906 30.283l-2.089-13.307a15.702 15.702 0 003.245-4.46c.206-.41.388-.831.547-1.261.195-.507.363-1.024.503-1.549.625-2.347.696-4.807.207-7.186l-1.717-8.415-.133-.656 1.559-1.472 21.582-20.444s-1.537 19.736 10.2 28.461"></path><path fill="#fff" d="M209.476 122.989s4.848 12.265 21.414 1.555c0 0-2.483 31.952-3.223 32.103-.739.15-22.565-.302-22.565-.302l-2.505-16.029 6.879-17.327z"></path><path fill="#34466B" fillRule="evenodd" d="M217.13 265.249a37.542 37.542 0 01-11.228 2.022l-20.333.504a169.742 169.742 0 01-53.393-7.206l-5.286-1.594 5.073-43.93 106.043-17.044s20.501 50.583-20.876 67.248z" clipRule="evenodd"></path><path fill="#FFC4B8" fillRule="evenodd" d="M232.576 94.763l-14.529 17.958a9.474 9.474 0 01-14.459.897 59.333 59.333 0 01-4.462-5.296l-3.171-4.249a17.45 17.45 0 01-2.338-4.237 17.692 17.692 0 01-1.167-7.5l.874-14.405a8.073 8.073 0 014.367-6.685 24.612 24.612 0 0117.584-1.901c.453.117.905.25 1.355.395l3.314.874a15.275 15.275 0 016.465 3.512 15.306 15.306 0 014.664 14.573l1.024-1.27c.656.177.474 7.33.474 7.33" clipRule="evenodd"></path><path fill="#FFC4B8" d="M193.177 80.126l4.39.597 4.92 22.167-11.117-1.383 1.807-21.381z"></path><path fill="#fff" d="M206.791 117.008s-2.68 1.394 2.248 8.82c4.928 7.427 5.318 20.344 5.318 20.344l-8.411 14.601-13.064-17.037 6.704-17.784a18.453 18.453 0 017.205-8.943M249.239 111.05l3.508 9.154-9.066 7.732a14.019 14.019 0 00-7.499-8.246 1.949 1.949 0 01.011-3.635l13.046-5.005z"></path><path fill="#FFC4B8" d="M235.939 85.566c.917-3.428.057-6.629-1.918-7.153-1.975-.525-4.318 1.83-5.229 5.258-.91 3.428-.055 6.63 1.917 7.153 1.973.523 4.319-1.829 5.23-5.258z"></path><path fill="#34466B" fillRule="evenodd" d="M129.082 336.554l14.161-98.676 35.408-24.032-36.671-4.725c-14.773-1.921-28.355 8.363-30.504 23.098l-13.553 93.816 31.159 10.519z" clipRule="evenodd"></path><path fill="#34466B" fillRule="evenodd" d="M106.138 341.034l14.163-98.671 35.408-24.032-36.67-4.73c-14.773-1.918-28.352 8.365-30.504 23.098l-13.559 93.817 31.162 10.518z" clipRule="evenodd"></path><path fill="#34466B" d="M202.092 74.141c-3.911-.546-8.098-1.449-10.715-4.392-2.618-2.943-2.394-8.546 1.287-9.979 1.145-.447 2.526-.48 3.37-1.371.997-1.048.744-2.733 1.294-4.07 1.303-3.17 5.812-2.77 9.234-2.405 3.65.385 7.347.08 11.001.486 3.654.406 7.425 1.666 9.74 4.51 3.827 4.705 1.449 12.934-4.3 14.89 0 0-13.777 3.34-20.906 2.336M232.447 88.657a13.58 13.58 0 01-2.991 9.963l-11.415 14.104a9.471 9.471 0 01-14.456.899 54.327 54.327 0 01-2.573-2.9 60.016 60.016 0 01-1.891-2.398l-.938-1.264-.062-.083-1.203-1.616-.961-1.284a15.617 15.617 0 01-.611-.863 10.447 10.447 0 019.802.401l15.643-8.395 6.57-24.637 3.088 6.885s1.934 6.479.627 11.24l1.023-1.272c.167.045.28.524.352 1.221"></path><path fill="#FFC4B8" d="M201.015 110.724a62.81 62.81 0 01-1.891-2.397l-.939-1.266 5.676-1.343s-.875 3.452-2.843 5.007"></path><path stroke="#9E3667" stroke-width="11.596" d="M167.325 209.107l27.083-.896"></path><path fill="#FFC4B8" fillRule="evenodd" d="M204.052 197.767l-10.496-.486-10.754-9.142a6.4 6.4 0 00-3.324-1.478l-10.149-1.361a4.139 4.139 0 00-3.975 1.78l-2.707 4.007a.566.566 0 00-.055.547l.272.681c.072.171.219.3.398.348.18.047.371.009.519-.104l.347-.278-.42.83c-.229.448-.155.991.185 1.361l.984 1.076a1.215 1.215 0 001.658.11l4.523-3.724a.343.343 0 01.292-.072l2.331.485a.342.342 0 01.095.635l-3.035 1.701a.813.813 0 00.144 1.483l2.283.765a.957.957 0 00.448.023l1.599-.369a1.978 1.978 0 011.325.162l2.243 1.137c.442.223.817.559 1.086.976l1.386 2.119a5.795 5.795 0 002.685 2.212l21.851 8.882-1.739-14.306z" clipRule="evenodd"></path><path fill="#fff" fillRule="evenodd" d="M168.3 213.435l-62.415-6.419a2.529 2.529 0 01-2.258-2.24l-4.715-44.431a2.511 2.511 0 012.77-2.779l62.409 6.418a2.515 2.515 0 012.254 2.24l4.723 44.43a2.529 2.529 0 01-2.77 2.781" clipRule="evenodd"></path><path fill="#9E3667" fillRule="evenodd" d="M164.306 166.015l4.725 44.428a2.527 2.527 0 01-2.77 2.78l-26.133-2.693-33.144-3.402-3.136-.324a2.513 2.513 0 01-2.252-2.247l-4.722-44.423a2.525 2.525 0 012.77-2.78l25.5 2.618 36.912 3.796a2.53 2.53 0 012.253 2.246" clipRule="evenodd"></path><path fill="#9E3667" fillRule="evenodd" d="M125.141 159.972l-18.157 47.155-3.137-.324a2.53 2.53 0 01-2.258-2.246l-4.715-44.424a2.52 2.52 0 012.77-2.779l25.497 2.618z" clipRule="evenodd"></path><mask id="mask1_2_1852" width="131" height="120" x="171" y="51" maskUnits="userSpaceOnUse" style="mask-type: alpha;"><path fill="#fff" fillRule="evenodd" d="M273.596 148.743a42.69 42.69 0 01-36.95 21.258h-64.881l57.368-99.015a38.787 38.787 0 0133.568-19.305c29.837 0 48.487 32.187 33.567 57.937l-22.672 39.125z" clipRule="evenodd"></path></mask><g mask="url(#mask1_2_1852)"><mask id="mask2_2_1852" width="201" height="199" x="102" y="156" maskUnits="userSpaceOnUse" style="mask-type: alpha;"><path fill="#fff" fillRule="evenodd" d="M102.739 354.79h199.382V156.104H102.739V354.79z" clipRule="evenodd"></path></mask><g mask="url(#mask2_2_1852)"><path fill="#fff" fillRule="evenodd" d="M171.122 154.865h132.244v120.809H171.122V154.865z" clipRule="evenodd"></path></g></g><path fill="#fff" fillRule="evenodd" d="M248.652 117.589l10.263 5.355a32.753 32.753 0 0117.509 31.584l-3.998 50.71c-.847 10.547-9.949 18.497-20.52 17.923l-51.915-2.749s6.308-19.574-.01-23.934l45.947 1.093.632-51.281 2.092-28.701z" clipRule="evenodd"></path><path fill="#fff" fillRule="evenodd" d="M223.774 126.145l-17.884 24.933-2.8 40.648 43.725 21.709 11.48-85.701-20.324-10.492a22.173 22.173 0 00-14.194 8.898" clipRule="evenodd"></path></g><path fill="#CEDEE7" fillRule="evenodd" d="M306.604 117.172c.749-5.913 5.938-10.491 12.227-10.491 6.804 0 12.32 5.359 12.32 11.97 0 1.084-.148 2.135-.427 3.134.105.001.208.005.311.011l.116-.009v.016c3.529.258 6.311 3.122 6.311 6.617 0 3.494-2.782 6.358-6.311 6.616v.02h-44.855v-.001c-2.75 0-4.979-2.166-4.979-4.838 0-2.671 2.229-4.837 4.979-4.837l11.364-.911a6.476 6.476 0 01-.078-1.011c0-3.664 3.057-6.635 6.828-6.635.768 0 1.505.123 2.194.349zM89.53 122.174c-1.134-9.038-8.983-16.035-18.497-16.035-10.293 0-18.638 8.19-18.638 18.294 0 1.657.225 3.263.646 4.79-.158.002-.315.008-.471.017l-.176-.015v.026c-5.338.394-9.546 4.771-9.546 10.112s4.208 9.718 9.546 10.112v.03h67.857v-.001h.001c4.159 0 7.531-3.311 7.531-7.394s-3.372-7.393-7.531-7.393h-.001l-17.192-1.391c.079-.504.12-1.021.12-1.546 0-5.601-4.625-10.141-10.33-10.141-1.162 0-2.277.188-3.319.535z" clipRule="evenodd"></path></svg>
